<svg width="310" height="313" viewBox="0 0 310 313" fill="none" xmlns="http://www.w3.org/2000/svg">
<path d="M61.0013 7.58001C74.9513 7.57001 88.9113 7.57001 102.861 7.58001C102.871 30.22 102.851 52.86 102.871 75.49C141.731 75.52 180.591 75.47 219.451 75.52C219.451 112.68 219.461 149.84 219.451 187.01C205.541 187.02 191.631 187.02 177.721 187.01C177.681 163.83 177.771 140.66 177.681 117.49C138.791 117.52 99.9113 117.48 61.0213 117.51C60.9613 80.87 61.0013 44.22 61.0013 7.58001Z" fill="#95B223"/>
<path d="M60.8005 198.51C74.8005 198.49 88.7905 198.49 102.79 198.51C102.79 234.17 102.78 269.83 102.8 305.48C88.8005 305.52 74.8005 305.5 60.8005 305.49C60.7905 269.83 60.7905 234.17 60.8005 198.51ZM61.8505 223.57C61.8305 236.38 61.8405 249.18 61.8505 261.99C72.0905 261.97 82.3405 262.07 92.5805 261.94C92.5505 259.4 92.5505 256.86 92.5405 254.32C85.5705 254.29 78.6005 254.33 71.6305 254.3C71.6205 251.72 71.6205 249.14 71.6305 246.57C77.7405 246.55 83.8405 246.56 89.9505 246.57C89.9705 244 89.9705 241.44 89.9605 238.88C83.8605 238.87 77.7505 238.88 71.6405 238.88C71.6305 236.36 71.6105 233.84 71.5805 231.33C78.3605 231.14 85.1505 231.3 91.9305 231.24C91.9405 228.68 91.9405 226.12 91.9405 223.57C81.9105 223.56 71.8805 223.55 61.8505 223.57Z" fill="#95B223"/>
<path d="M177.709 7.58002C191.629 7.58002 205.539 7.58002 219.449 7.58002C219.449 25.39 219.449 43.19 219.449 61C205.539 61 191.619 61 177.709 61C177.709 43.19 177.709 25.39 177.709 7.58002Z" fill="#F4F6FC"/>
<path d="M60.9997 133.25C74.9597 133.25 88.9097 133.25 102.86 133.25C102.86 151.17 102.86 169.09 102.86 187.01C88.9097 187.02 74.9497 187.02 60.9997 187.01C60.9897 169.09 60.9897 151.17 60.9997 133.25Z" fill="#F4F6FC"/>
<path d="M11.0998 223.56C14.3498 223.56 17.6098 223.56 20.8798 223.56C20.8798 228.83 20.8698 234.1 20.8798 239.37C26.1898 239.38 31.4899 239.38 36.7999 239.37C36.7999 234.1 36.7899 228.83 36.7999 223.57C40.0599 223.56 43.3099 223.56 46.5699 223.56C46.5999 236.37 46.5698 249.18 46.5898 261.99C43.3198 262 40.0599 262 36.7999 262C36.7999 257.02 36.7999 252.04 36.7999 247.06C31.4899 247.06 26.1898 247.06 20.8798 247.07C20.8698 252.04 20.8698 257.02 20.8798 262C17.6198 262 14.3498 262 11.0898 262C11.0998 249.18 11.0898 236.37 11.0998 223.56Z" fill="#F4F6FC"/>
<path d="M61.8494 223.57C71.8794 223.55 81.9094 223.56 91.9394 223.57C91.9394 226.12 91.9394 228.68 91.9294 231.24C85.1494 231.3 78.3594 231.14 71.5794 231.33C71.6094 233.84 71.6294 236.36 71.6394 238.88C77.7494 238.88 83.8594 238.87 89.9594 238.88C89.9694 241.44 89.9694 244 89.9494 246.57C83.8394 246.56 77.7394 246.55 71.6294 246.57C71.6194 249.14 71.6194 251.72 71.6294 254.3C78.5994 254.33 85.5694 254.29 92.5394 254.32C92.5494 256.86 92.5494 259.4 92.5794 261.94C82.3394 262.07 72.0894 261.97 61.8494 261.99C61.8394 249.18 61.8294 236.38 61.8494 223.57Z" fill="#F4F6FC"/>
<path d="M106.6 223.57C113.03 223.63 119.47 223.41 125.91 223.68C130.55 223.92 135.58 225.76 138.05 229.95C141.59 236.44 139.76 245.91 132.86 249.42C135.53 253.61 138.19 257.8 140.85 262C137.17 262 133.48 261.99 129.79 262.01C127.85 258.42 125.97 254.79 124.06 251.19C121.49 251.19 118.93 251.19 116.37 251.19C116.38 254.79 116.38 258.39 116.38 262C113.11 262 109.85 262 106.6 262C106.6 249.19 106.59 236.38 106.6 223.57ZM116.38 231.26C116.38 235.33 116.37 239.41 116.39 243.48C119.88 243.34 123.48 243.9 126.9 242.98C131.83 241.35 131.7 232.85 126.54 231.62C123.2 230.93 119.76 231.34 116.38 231.26Z" fill="#F4F6FC"/>
<path d="M149.971 262C155.521 249.18 161.011 236.35 166.591 223.55C169.941 223.56 173.281 223.55 176.631 223.58C182.001 236.4 187.421 249.19 192.811 261.99C189.321 262 185.841 262.01 182.351 261.98C181.461 259.64 180.561 257.3 179.681 254.96C174.061 254.88 168.451 254.94 162.831 254.92C161.891 257.27 160.961 259.63 160.031 262C156.671 262 153.321 262 149.971 262ZM171.281 233.29C169.411 238.02 167.551 242.76 165.691 247.5C169.391 247.5 173.081 247.5 176.781 247.5C174.951 242.76 173.121 238.02 171.281 233.29Z" fill="#F4F6FC"/>
<path d="M204.1 223.56C207.35 223.56 210.61 223.56 213.88 223.56C213.88 233.64 213.87 243.73 213.88 253.81C219.31 253.81 224.75 253.8 230.19 253.81C230.19 256.54 230.19 259.27 230.19 262C221.49 262 212.79 262 204.09 262C204.1 249.18 204.09 236.37 204.1 223.56Z" fill="#F4F6FC"/>
<path d="M242.34 261.99C242.36 249.18 242.32 236.37 242.36 223.56C251.89 224.26 262.51 221.48 271.08 226.91C280.57 232.76 282.06 247.47 274.63 255.53C270.96 259.63 265.48 261.77 260.04 261.94C254.14 262.09 248.24 261.96 242.34 261.99ZM252.13 231.36C252.12 238.97 252.12 246.58 252.13 254.2C256.01 254.02 260.21 254.87 263.83 253.08C271.12 249.17 271.21 237.06 264.17 232.84C260.55 230.66 256.14 231.53 252.13 231.36Z" fill="#F4F6FC"/>
<path d="M198.27 275.14C202.83 271.45 211.73 273.4 211.83 280.15C210.36 280.16 208.89 280.16 207.43 280.15C207.09 276.31 199.2 276.74 201.45 280.72C204.51 282.4 208.58 282.17 211.01 284.96C213.47 287.73 212.31 292.53 209.08 294.2C204.11 297.08 195.92 294.67 195.82 288.15C197.34 288.13 198.86 288.13 200.39 288.14C200.86 292.08 208.15 292.24 207.55 287.91C205.04 285.46 200.9 286.18 198.25 283.89C195.46 281.83 195.73 277.29 198.27 275.14Z" fill="#F4F6FC"/>
<path d="M107.189 273.7C108.559 273.69 109.929 273.68 111.299 273.68C114.439 278 117.529 282.35 120.669 286.68C120.679 282.35 120.669 278.02 120.679 273.69C122.189 273.69 123.699 273.69 125.209 273.69C125.219 280.8 125.209 287.9 125.209 295C123.919 294.99 122.629 294.99 121.339 294.99C118.119 290.56 114.919 286.13 111.689 281.71C111.679 286.13 111.679 290.56 111.689 294.99C110.189 294.99 108.689 294.99 107.189 295C107.199 287.9 107.189 280.8 107.189 273.7Z" fill="#F4F6FC"/>
<path d="M136.189 273.7C140.459 273.69 144.719 273.69 148.979 273.69C148.979 275.11 148.979 276.53 148.979 277.95C146.249 277.95 143.509 277.94 140.779 277.95C140.779 279.36 140.779 280.76 140.779 282.17C143.249 282.17 145.709 282.17 148.179 282.18C148.179 283.56 148.179 284.94 148.179 286.33C145.709 286.34 143.249 286.34 140.779 286.35C140.769 287.8 140.769 289.26 140.769 290.73C143.619 290.74 146.459 290.74 149.309 290.74C149.299 292.16 149.299 293.57 149.309 295C144.929 295 140.559 295 136.189 295C136.199 287.89 136.189 280.79 136.189 273.7Z" fill="#F4F6FC"/>
<path d="M157.359 273.69C158.979 273.69 160.599 273.69 162.229 273.69C163.639 278.41 165.019 283.14 166.429 287.87C168.379 283.26 170.039 278.53 172.109 273.97C172.479 273.99 173.209 274.02 173.579 274.04C175.619 278.58 177.359 283.26 179.329 287.84C180.709 283.12 182.049 278.39 183.459 273.68C185.049 273.68 186.639 273.69 188.239 273.7C186.059 280.81 183.839 287.91 181.679 295.03C180.259 294.98 178.849 294.94 177.439 294.89C175.999 290.91 174.379 287 172.809 283.08C171.249 287.05 169.709 291.03 168.159 295C166.789 295 165.429 295 164.069 295C161.829 287.9 159.589 280.79 157.359 273.69Z" fill="#F4F6FC"/>
</svg>
